PathFileType	4	(X/Y/Z)	C:/Users/opensim2020/Desktop/walking_exp_matlab/subject01_walking04_straight_02.trc	
DataRate	CameraRate	NumFrames	NumMarkers	Units	OrigDataRate	OrigDataStartFrame	OrigNumFrames	
100.00	100.00	4	43	mm	100.00	1581	261	
Frame#	Time	LFHD			RFHD			LBHD			RBHD			C7			T10			CLAV			STRN			RBAK			LSHO			LUPA			LELB			LFRM			LWRA			LWRB			LFIN			RSHO			RUPA			RELB			RFRM			RWRA			RWRB			RFIN			LASI			RASI			LPSI			RPSI			LTHI			LKNE			LTIB			LANK			LHEE			LTOE			RTHI			RKNE			RTIB			RANK			RHEE			RTOE			*39			*40			*41			*42			
		X1	Y1	Z1	X2	Y2	Z2	X3	Y3	Z3	X4	Y4	Z4	X5	Y5	Z5	X6	Y6	Z6	X7	Y7	Z7	X8	Y8	Z8	X9	Y9	Z9	X10	Y10	Z10	X11	Y11	Z11	X12	Y12	Z12	X13	Y13	Z13	X14	Y14	Z14	X15	Y15	Z15	X16	Y16	Z16	X17	Y17	Z17	X18	Y18	Z18	X19	Y19	Z19	X20	Y20	Z20	X21	Y21	Z21	X22	Y22	Z22	X23	Y23	Z23	X24	Y24	Z24	X25	Y25	Z25	X26	Y26	Z26	X27	Y27	Z27	X28	Y28	Z28	X29	Y29	Z29	X30	Y30	Z30	X31	Y31	Z31	X32	Y32	Z32	X33	Y33	Z33	X34	Y34	Z34	X35	Y35	Z35	X36	Y36	Z36	X37	Y37	Z37	X38	Y38	Z38	X39	Y39	Z39	X40	Y40	Z40	X41	Y41	Z41	X42	Y42	Z42	X43	Y43	Z43	

164	1.630	1487.96472	162.55983	1664.48083	1376.82654	135.59532	1666.86694	1467.08765	280.68430	1627.09937	1348.09900	255.12556	1628.92749	1425.81860	324.39435	1431.26978	1421.82214	361.80356	1137.29321	1436.34827	182.88303	1362.18091	1444.25598	139.68629	1208.10669	1344.03735	373.51697	1235.80322	1593.97681	251.86824	1392.49158	1673.49451	307.95200	1211.94702	1665.51172	341.54929	1064.48840	1687.86401	320.71194	951.81360	1668.66602	257.16055	826.95654	1689.30334	314.45093	829.38129	1694.68225	279.25366	751.09912	1281.24207	234.10521	1388.40735	1170.00879	260.53458	1187.89734	1158.80969	237.77150	1063.57312	1134.91040	168.04228	962.13257	1166.37964	53.15504	883.78363	1123.73206	89.37893	868.35883	1129.20557	25.45272	813.17114	1535.74524	184.50084	932.54248	1317.70715	183.56190	930.28931	1485.62939	370.75500	941.09692	1341.89563	368.47672	949.10565	1605.45789	136.78360	614.91431	1583.58752	104.69302	485.72104	1593.80347	115.07404	301.01175	1546.46924	77.79084	79.67135	1485.78931	106.78305	41.70228	1562.32092	-68.86393	70.71162	1274.52307	287.73688	603.39380	1304.58362	312.27240	445.47430	1301.06726	398.89169	290.98761	1358.33704	466.22192	94.01867	1406.43396	522.67633	68.83182	1377.41492	332.91785	35.15590	1397.38135	148.09764	1701.92200	-3101.99316	1973.15100	1023.47949	-3140.73438	2012.44080	1021.93866			 
165	1.640	1489.28369	152.25859	1663.28369	1378.12219	125.25035	1665.75330	1468.41321	270.43146	1626.02527	1349.69409	245.02417	1627.86279	1427.01318	314.27054	1430.16345	1423.04517	351.57397	1136.12036	1437.47571	172.66476	1361.12683	1445.05688	129.46774	1206.93079	1345.11365	363.44449	1234.78809	1595.09192	241.51663	1391.17456	1674.49646	298.04492	1210.62073	1666.17529	332.14722	1063.45288	1688.44934	312.59988	950.63538	1669.00085	250.83241	824.91064	1689.80859	307.99130	828.13477	1694.70557	273.83408	749.07758	1282.45129	224.05202	1387.27283	1170.73999	249.47908	1187.12854	1159.38965	226.52496	1062.75134	1136.02087	155.46155	961.98279	1168.04968	39.70662	885.24963	1125.26184	75.69859	869.21936	1131.04163	10.87034	815.13684	1536.34265	173.71436	931.27600	1318.08936	173.69237	929.21790	1486.99377	360.21115	939.85699	1343.38074	358.53043	948.21661	1606.43945	129.23457	612.48889	1583.26733	96.06573	484.12167	1594.00659	99.60674	299.84662	1547.45703	52.74123	79.65000	1487.42676	81.17764	40.54180	1561.67310	-94.86347	75.93359	1274.74097	280.85507	603.23859	1304.62805	307.07379	445.39444	1300.84375	395.39185	291.72406	1357.82898	465.46939	95.61488	1405.90857	521.98956	70.98238	1377.28809	332.80170	35.16251	1398.63892	137.79308	1700.68579	-3102.03174	1973.00574	1023.79309	-3140.62549	2012.52612	1022.07184			 
166	1.650	1490.67834	141.98230	1662.09668	1379.54089	114.89988	1664.61682	1469.78979	260.14108	1624.93762	1351.09009	234.78798	1626.84241	1428.35364	304.13687	1429.12122	1424.31165	341.17847	1134.90320	1438.57153	162.46701	1359.95972	1445.97217	119.20012	1205.85132	1346.30713	353.31482	1233.68628	1596.28992	231.21626	1389.88013	1675.60645	287.92548	1209.23499	1667.00854	322.52597	1062.40320	1689.19470	304.13989	949.47577	1669.54077	244.00316	822.91907	1690.57300	301.16913	826.96136	1695.11658	268.17615	747.38715	1283.66187	213.99588	1386.26245	1171.60632	238.63165	1186.39197	1160.13989	215.41353	1061.89990	1137.30945	142.66902	961.96997	1169.97693	26.99201	886.45068	1126.84204	62.27768	869.97034	1132.88220	-3.15476	816.81421	1536.87305	162.75761	929.91760	1318.51990	163.63498	928.09851	1488.53564	349.46021	938.65576	1344.82776	348.53900	947.26337	1607.34741	121.27731	610.11829	1583.19409	87.43191	482.69495	1594.00134	84.98396	298.76157	1547.86267	30.05236	80.05359	1488.21509	57.64402	39.92294	1560.59656	-117.97145	80.84994	1274.96069	273.70914	602.89233	1304.55530	301.30142	445.05450	1300.61157	391.82013	292.86075	1357.15332	464.43106	97.26864	1405.22498	521.34387	73.61493	1377.16589	332.62350	35.13102	1399.99243	127.43200	1699.54126	-3101.97363	1972.98242	1023.72992	-3140.65063	2012.53296	1021.99353			 
167	1.660	1492.12366	131.59526	1660.92749	1380.94263	104.55955	1663.47986	1471.20996	249.86006	1623.90369	1352.54663	224.52380	1625.85559	1429.69678	293.95615	1427.97302	1425.58618	330.62479	1133.63672	1439.76624	152.16895	1358.88000	1446.97803	108.69645	1204.84595	1347.60864	343.04373	1232.52234	1597.60156	220.91290	1388.57214	1676.77954	277.65668	1207.87769	1667.97314	312.66534	1061.25696	1690.08716	295.36298	948.28784	1670.13477	236.72426	820.97284	1691.51709	293.76816	825.73053	1695.61475	261.89291	745.66150	1284.89563	203.77921	1385.45203	1172.54028	227.91644	1185.72119	1160.90955	204.45941	1061.10791	1138.54041	130.63448	961.72931	1171.76001	14.03131	887.61469	1128.53845	49.08163	870.61322	1134.91309	-16.86906	818.45837	1537.38416	151.63966	928.51208	1318.90161	153.47624	926.91998	1490.20984	338.48572	937.52698	1346.60535	338.30371	946.54761	1608.12195	112.63965	608.11871	1583.28870	78.41114	481.35501	1593.47461	70.72878	297.40369	1547.41504	9.82838	80.35420	1487.97559	36.57353	39.64970	1558.88086	-138.77097	85.03914	1275.15942	266.09644	602.63239	1304.58276	294.99207	444.77606	1300.86804	387.82037	293.94455	1356.49011	462.93488	99.04828	1404.38721	520.55066	76.39764	1377.24963	332.63065	35.21678	1401.49939	117.03239	1698.37683	-3102.00903	1973.07788	1023.60565	-3140.59497	2012.55054	1021.92963			 
